<svg xmlns="http://www.w3.org/2000/svg" viewBox="0 0 773 979.1"><defs><style>.cls-1,.cls-2,.cls-3{fill:none;stroke:#000;}.cls-1,.cls-3{stroke-width:5px;}.cls-2{stroke-width:3px;}.cls-3{stroke-miterlimit:3;}</style></defs><title>Asset 22</title><g id="Layer_2" data-name="Layer 2"><g id="Layer_1-2" data-name="Layer 1"><path class="cls-1" d="M104.5,889c269.71,126.94,467.75,78.54,467.75,78.54,24.84-3.88,13.18-72.88,13.18-72.88s-2.31-31.76,2.7-61c16.45-95.42,25-123.81,25-123.81a1049.78,1049.78,0,0,0,24.4-134.3,555.25,555.25,0,0,0,3.5-76.76c-1.16-40.68-8.15-66.85-8.15-66.85s-4.07-29.06-16.88-71.51-9.87-58.14-9.87-58.14S637,220.86,619,167.93C588.85,79.55,519,1.67,519,1.67"/><path class="cls-1" d="M282.34,696.42s29.76-24.91,52.42-44.1,54-38.46,80.72-63.46,40.1,0,41.85,1.16,9.32,14.53,31.39,13.38S517.24,590,517.24,590s10.42-26.15,32,2.34c36.49,48.36,20.91,102.9,9.88,104.62-4.09.66-31.33-45.76-63.37-31.37-28.47,12.79-44,5.59-58.73,2.3-5.21-1.15-23.25-7.55-77.32,8.74S304.07,704,279.42,713.86C277.28,714.74,269.55,708.63,282.34,696.42Z"/><path class="cls-1" d="M280.59,717.35c0,6.38,43,19.19,75,27.33S427,763.9,449.76,761.53c9.14-1,7.64-1.78,36.65,0,19.17,1.16,59.28-12.22,68.58-23.84,0,0,7-6.39,7-19.76s-9.9-25-9.9-25S540.47,679,537,676.65s-24.42-19.76-46.51-7.58-55.24,0-55.24,0-9.86-4.62-57,4.09S280.59,712.68,280.59,717.35Z"/><path class="cls-1" d="M404.83,476.07c-7.56,2.4-26.44,7.78-30.25-9.3-3.1-13.94,15.51-25.57,15.51-25.57S404.83,431.89,442,435c43.46,3.61,24.68,10.67,19.4,13.18C447.15,454.94,421.87,470.64,404.83,476.07Z"/><path class="cls-1" d="M525,460.57s17-16.28,22.48-10.08-7.73,26.37-7.73,26.37S528.08,487.71,518,489.24s-18.62-11.61-10.84-17S525,460.57,525,460.57Z"/><path class="cls-1" d="M342.8,369.87s-42.49,20.94-43.41,83.71c-.77,54.27,40.34,51.95,40.34,51.95S356,510.19,380,489.24s67.42-3.1,67.42-3.1,17.83,14.74,34.89,2.34,40.33,10.06,40.33,10.06,16.28,10.87,40.3-13.16,16.28-71.32,16.28-71.32-3.88-42.63-32.56-79.06-41.87-53.5-51.18-76c-5.58-13.53-7-42.61-24-53.48,0,0-21.71-10.84-32.53.76s-20.19,55.82-20.19,55.82A288.64,288.64,0,0,1,394,317.17C376.92,346.61,342.8,369.87,342.8,369.87Z"/><path class="cls-2" d="M62.18,214.84s41.11-74.33,125.59-75.18c76-.79,96.12,59.68,96.12,59.68"/><path class="cls-2" d="M73.83,218.72s55-64.33,117.82-65.11,72.08,41.08,72.08,41.08"/><path class="cls-2" d="M74.58,224.14s79.91-57.16,133.33-55c38.78,1.57,46.51,26.36,46.51,26.36"/><path class="cls-2" d="M119.53,213.29s41.12,17.83,89.16,13.19c44.09-4.27,44.2-8.54,44.2-8.54"/><path class="cls-2" d="M175.36,174.53s-14.71,38.76,20.95,47.29,41.87-23.25,41.87-23.25,3.07-14.73-.78-19.37S218,163.69,175.36,174.53Z"/><path class="cls-2" d="M207.16,178.4s-14.73,0-15.51,11.66,15.51,14.71,15.51,14.71,12.38,0,12.38-12.4S207.16,178.4,207.16,178.4Z"/><path class="cls-2" d="M516.43,233.44S546,212.69,580,225.7c42.65,16.27,27.91,51.16,27.91,51.16"/><path class="cls-2" d="M518.78,238.87s32.07-18.59,64.31.78c34.91,20.92,17.85,62,17.85,62"/><path class="cls-2" d="M520.31,242.74s36.45-15.5,59.68,7.76S590.85,304,590.85,304"/><path class="cls-2" d="M584.65,291.58s-21.69-3.09-29.46-6.2-28.68-13.94-28.68-13.94"/><path class="cls-2" d="M530.39,248.17s-6.2,26.35,21,33.33,24-13.16,24-13.16S580,242,556.76,238.86,530.39,248.17,530.39,248.17Z"/><path class="cls-2" d="M552.88,246.62s-10.87,0-10.87,9.32,10.08,11.61,10.08,11.61,8.52,0,7.78-9.29S552.88,246.62,552.88,246.62Z"/><path class="cls-3" d="M725.75,222.59c-44.19-33.32-97.67-45-97.67-45s-97.69-21.71-114,20.14,1.54,96.13,1.54,96.13l-24.79-45s-4.67-42.64-29.46-48.06c-21-4.58-30.76,16.13-34.11,26.36-15.86,48.44-30.25,85.28-58.14,110.08-13,11.57-37.21,20.92-177.52,2.31S30.4,303.22,18.8,286.15a49.48,49.48,0,0,1-8.55-29.44s-.77-17.07-3.47-48.06S2.5,180,2.5,180L3.31,65.23,26.1,55.86s120.3-20.93,216.23-1.74,144.08,72,176.17,94.18c15.65,10.85,71.67,23.71,90.57,21.39,28.49-3.49,56.86-19.9,96-12.65,52.84,9.75,161,56.15,162.74,56.27M43.58,280.75C66.07,311,193.22,325.69,193.22,325.69s143.38,14.73,169,0,45.73-91.47,45.73-91.47c15.51-52.71,6.2-68.21-19.37-88.37C324.39,95.3,256.78,78.42,242.8,76.09,120.75,55.75,59.89,85.4,59.89,85.4c-24.14,13-29.49,91.45-29.49,91.45S21.1,250.51,43.58,280.75Zm677.51,95.33C645.12,400.89,567.6,366,567.6,366l8.54,19.39s40.29,12.39,75.18,12.39,80.09-12.4,80.09-12.4m0,0s20.88-3.48,26.61-31.92c4.71-23.54,9.8-76.6,9.8-76.6s6-59.21,0-63.55m-42.07,9.28c15.72,10.77,21.4,21.37,23.47,30.82,5.18,23.63,4.84,76.63-1.06,96.8s-27.07,25.87-27.07,25.87"/><path class="cls-1" d="M751.28,280.15,608.14,328.33c-3.87-10.86-2-26.08-2-26.08l131.76-69.33"/><path class="cls-1" d="M414.5,200.12S396.69,214.07,387,242.37s-7.35,64.33-7.35,64.33"/></g></g></svg>