<svg id="Layer_1" data-name="Layer 1" xmlns="http://www.w3.org/2000/svg" xmlns:xlink="http://www.w3.org/1999/xlink" viewBox="0 0 282.88 356.92"><defs><style>.cls-1,.cls-3,.cls-4,.cls-6{fill:none;}.cls-2{clip-path:url(#clip-path);}.cls-3,.cls-4,.cls-6{stroke:#010101;}.cls-3,.cls-6{stroke-width:5px;}.cls-4{stroke-width:3px;}.cls-5{fill:#fff;}.cls-6{stroke-miterlimit:3;}</style><clipPath id="clip-path" transform="translate(-4.28 -28.9)"><rect class="cls-1" x="-2869.35" y="13.21" width="3165.35" height="409.63"/></clipPath></defs><title>ItsAMe</title><g class="cls-2"><path class="cls-3" d="M43.69,351.63C141.28,397.56,212.93,380,212.93,380c9-1.4,4.77-26.36,4.77-26.36a105.76,105.76,0,0,1,1-22.09c6-34.53,9.06-44.8,9.06-44.8a380.86,380.86,0,0,0,8.83-48.59,201,201,0,0,0,1.27-27.78,115.87,115.87,0,0,0-3-24.19,190.54,190.54,0,0,0-6.11-25.87c-4.62-15.36-3.57-21-3.57-21s11.15-29.44,4.63-48.59c-10.89-32-36.18-60.16-36.18-60.16" transform="translate(-4.28 -28.9)"/><path class="cls-3" d="M108,282s10.77-9,19-16,19.53-13.91,29.21-23,14.51,0,15.14.42,3.37,5.26,11.36,4.84S193,243.45,193,243.45s3.77-9.46,11.56.85c13.2,17.49,7.57,37.23,3.57,37.85-1.48.24-11.33-16.56-22.93-11.35-10.3,4.63-15.9,2-21.24.83-1.89-.41-8.42-2.73-28,3.16s-20.11,9.9-29,13.47C106.2,288.58,103.41,286.37,108,282Z" transform="translate(-4.28 -28.9)"/><path class="cls-3" d="M107.4,289.52c0,2.31,15.57,6.94,27.14,9.89s25.82,6.95,34.07,6.1c3.31-.35,2.76-.65,13.26,0,6.94.42,21.45-4.43,24.81-8.63,0,0,2.54-2.31,2.54-7.15s-3.58-9.05-3.58-9.05-4.21-5-5.47-5.89-8.84-7.15-16.83-2.74-20,0-20,0-3.56-1.67-20.61,1.48S107.4,287.83,107.4,289.52Z" transform="translate(-4.28 -28.9)"/><path class="cls-3" d="M152.35,202.22c-2.73.87-9.56,2.82-10.94-3.36-1.12-5.05,5.61-9.26,5.61-9.26s5.33-3.37,18.79-2.24c15.72,1.3,8.93,3.86,7,4.77C167.67,194.57,158.52,200.26,152.35,202.22Z" transform="translate(-4.28 -28.9)"/><path class="cls-3" d="M195.82,196.61S202,190.72,204,193s-2.8,9.54-2.8,9.54S197,206.43,193.3,207s-6.74-4.19-3.92-6.16S195.82,196.61,195.82,196.61Z" transform="translate(-4.28 -28.9)"/><path class="cls-3" d="M129.91,163.79s-15.37,7.58-15.71,30.29c-.28,19.64,14.6,18.8,14.6,18.8s5.88,1.69,14.58-5.89,24.39-1.12,24.39-1.12,6.45,5.33,12.62.84,14.6,3.64,14.6,3.64,5.89,3.93,14.58-4.76,5.89-25.81,5.89-25.81a60.28,60.28,0,0,0-11.78-28.6c-10.38-13.19-15.15-19.36-18.52-27.49-2-4.9-2.53-15.42-8.69-19.35,0,0-7.86-3.93-11.77.27s-7.31,20.2-7.31,20.2a104.4,104.4,0,0,1-9,19.92C142.26,155.38,129.91,163.79,129.91,163.79Z" transform="translate(-4.28 -28.9)"/><path class="cls-4" d="M28.38,107.7S43.25,80.81,73.82,80.5c27.49-.29,34.78,21.6,34.78,21.6" transform="translate(-4.28 -28.9)"/><path class="cls-4" d="M32.59,109.11S52.5,85.83,75.22,85.55s26.08,14.86,26.08,14.86" transform="translate(-4.28 -28.9)"/><path class="cls-4" d="M32.86,111.07S61.77,90.38,81.1,91.15c14,.57,16.83,9.54,16.83,9.54" transform="translate(-4.28 -28.9)"/><path class="cls-4" d="M49.13,107.14a72.54,72.54,0,0,0,32.26,4.77c16-1.54,16-3.09,16-3.09" transform="translate(-4.28 -28.9)"/><path class="cls-4" d="M69.33,93.12s-5.33,14,7.58,17.11,15.15-8.41,15.15-8.41,1.11-5.33-.29-7S84.76,89.19,69.33,93.12Z" transform="translate(-4.28 -28.9)"/><path class="cls-4" d="M80.83,94.52s-5.33,0-5.61,4.22,5.61,5.32,5.61,5.32,4.48,0,4.48-4.49S80.83,94.52,80.83,94.52Z" transform="translate(-4.28 -28.9)"/><path class="cls-4" d="M192.73,114.43s10.69-7.5,23-2.8c15.43,5.89,10.1,18.51,10.1,18.51" transform="translate(-4.28 -28.9)"/><path class="cls-4" d="M193.58,116.4s11.61-6.73,23.27.28c12.63,7.57,6.46,22.43,6.46,22.43" transform="translate(-4.28 -28.9)"/><path class="cls-4" d="M194.14,117.8s13.19-5.61,21.59,2.81S219.66,140,219.66,140" transform="translate(-4.28 -28.9)"/><path class="cls-4" d="M217.42,135.47s-7.85-1.12-10.66-2.24-10.38-5-10.38-5" transform="translate(-4.28 -28.9)"/><path class="cls-4" d="M197.78,119.76s-2.24,9.54,7.58,12.06,8.7-4.76,8.7-4.76,1.68-9.54-6.73-10.66S197.78,119.76,197.78,119.76Z" transform="translate(-4.28 -28.9)"/><path class="cls-4" d="M205.92,119.2s-3.93,0-3.93,3.37,3.64,4.21,3.64,4.21a2.85,2.85,0,0,0,2.82-3.37C208.16,120,205.92,119.2,205.92,119.2Z" transform="translate(-4.28 -28.9)"/><path class="cls-5" d="M268.47,110.51c-16-12.06-35.34-16.27-35.34-16.27s-35.35-7.85-41.23,7.29.56,34.78.56,34.78l-9-16.27s-1.69-15.43-10.66-17.39c-7.59-1.65-11.13,5.84-12.34,9.54-5.74,17.52-11,30.85-21,39.83-4.71,4.19-13.46,7.57-64.23.83s-58.34-13.17-62.54-19.34a17.94,17.94,0,0,1-3.09-10.66s-.28-6.17-1.26-17.39S6.78,95.08,6.78,95.08l.29-41.51,8.25-3.39s43.53-7.57,78.24-.63,52.13,26,63.74,34.08c5.66,3.92,25.93,8.58,32.77,7.74,10.31-1.27,20.57-7.21,34.74-4.58,19.12,3.53,58.25,20.31,58.88,20.36m-262,24.4c8.13,10.93,54.14,16.26,54.14,16.26s51.88,5.33,61.13,0,16.55-33.1,16.55-33.1c5.61-19.07,2.24-24.68-7-32C123.25,64.45,98.79,58.34,93.73,57.5c-44.16-7.36-66.18,3.37-66.18,3.37C18.81,65.57,16.88,94,16.88,94s-3.37,26.65,4.77,37.59M266.78,166c-27.48,9-55.53-3.64-55.53-3.64l3.09,7s14.57,4.49,27.2,4.49,29-4.49,29-4.49m0,0s7.55-1.26,9.62-11.55c1.71-8.52,3.55-27.72,3.55-27.72s2.18-21.42,0-23m-15.22,3.36c5.69,3.89,7.74,7.73,8.49,11.15,1.88,8.55,1.75,27.72-.38,35s-9.8,9.36-9.8,9.36" transform="translate(-4.28 -28.9)"/><path class="cls-6" d="M268.47,110.51c-16-12.06-35.34-16.27-35.34-16.27s-35.35-7.85-41.23,7.29.56,34.78.56,34.78l-9-16.27s-1.69-15.43-10.66-17.39c-7.59-1.65-11.13,5.84-12.34,9.54-5.74,17.52-11,30.85-21,39.83-4.71,4.19-13.46,7.57-64.23.83s-58.34-13.17-62.54-19.34a17.94,17.94,0,0,1-3.09-10.66s-.28-6.17-1.26-17.39S6.78,95.08,6.78,95.08l.29-41.51,8.25-3.39s43.53-7.57,78.24-.63,52.13,26,63.74,34.08c5.66,3.92,25.93,8.58,32.77,7.74,10.31-1.27,20.57-7.21,34.74-4.58,19.12,3.53,58.25,20.31,58.88,20.36m-262,24.4c8.13,10.93,54.14,16.26,54.14,16.26s51.88,5.33,61.13,0,16.55-33.1,16.55-33.1c5.61-19.07,2.24-24.68-7-32C123.25,64.45,98.79,58.34,93.73,57.5c-44.16-7.36-66.18,3.37-66.18,3.37C18.81,65.57,16.88,94,16.88,94S13.51,120.61,21.65,131.55ZM266.78,166c-27.48,9-55.53-3.64-55.53-3.64l3.09,7s14.57,4.49,27.2,4.49,29-4.49,29-4.49m0,0s7.55-1.26,9.62-11.55c1.71-8.52,3.55-27.72,3.55-27.72s2.18-21.42,0-23m-15.22,3.36c5.69,3.89,7.74,7.73,8.49,11.15,1.88,8.55,1.75,27.72-.38,35s-9.8,9.36-9.8,9.36" transform="translate(-4.28 -28.9)"/><path class="cls-3" d="M277.71,131.33l-51.79,17.44c-1.4-3.93-.71-9.44-.71-9.44l47.67-25.08" transform="translate(-4.28 -28.9)"/><path class="cls-3" d="M155.85,102.38s-6.44,5-9.95,15.28-2.67,23.28-2.67,23.28" transform="translate(-4.28 -28.9)"/></g></svg>